<svg xmlns="http://www.w3.org/2000/svg" xmlns:xlink="http://www.w3.org/1999/xlink" width="1400" zoomAndPan="magnify"
	viewBox="0 0 1050 419.999985" height="560" preserveAspectRatio="xMidYMid meet" version="1.0">
	<defs>
		<g />
	</defs>
	<g fill="#ff6969" fill-opacity="1">
		<g transform="translate(171.070494, 256.414547)">
			<g>
				<path
					d="M 51.578125 -93.09375 L 48.890625 -34.25 L 31.765625 -34.25 L 29.015625 -93.09375 Z M 40.296875 -22.03125 C 43.703125 -22.03125 46.578125 -20.832031 48.921875 -18.4375 C 51.273438 -16.039062 52.453125 -13.1875 52.453125 -9.875 C 52.453125 -6.5625 51.273438 -3.707031 48.921875 -1.3125 C 46.578125 1.082031 43.703125 2.28125 40.296875 2.28125 C 36.984375 2.28125 34.128906 1.082031 31.734375 -1.3125 C 29.335938 -3.707031 28.140625 -6.5625 28.140625 -9.875 C 28.140625 -13.1875 29.335938 -16.039062 31.734375 -18.4375 C 34.128906 -20.832031 36.984375 -22.03125 40.296875 -22.03125 Z M 40.296875 -22.03125 " />
			</g>
		</g>
	</g>
	<g fill="#ff6969" fill-opacity="1">
		<g transform="translate(95.268542, 256.414547)">
			<g>
				<path
					d="M 62.65625 -112.828125 L 62.65625 -98.0625 C 59.925781 -98.0625 57.585938 -97.828125 55.640625 -97.359375 C 53.691406 -96.890625 52.234375 -96.035156 51.265625 -94.796875 C 50.304688 -93.566406 49.941406 -91.8125 50.171875 -89.53125 L 52.25 -69.71875 C 52.789062 -64.695312 52.242188 -60.640625 50.609375 -57.546875 C 48.972656 -54.460938 46.488281 -52.101562 43.15625 -50.46875 C 39.820312 -48.832031 35.890625 -47.679688 31.359375 -47.015625 C 36.148438 -46.296875 40.203125 -45.128906 43.515625 -43.515625 C 46.835938 -41.910156 49.257812 -39.582031 50.78125 -36.53125 C 52.300781 -33.488281 52.789062 -29.414062 52.25 -24.3125 L 50.171875 -4.5 C 49.941406 -2.257812 50.304688 -0.515625 51.265625 0.734375 C 52.234375 1.992188 53.703125 2.859375 55.671875 3.328125 C 57.648438 3.796875 59.976562 4.03125 62.65625 4.03125 L 62.65625 18.8125 C 56.476562 18.8125 51.238281 18.363281 46.9375 17.46875 C 42.644531 16.570312 39.210938 15.148438 36.640625 13.203125 C 34.066406 11.253906 32.296875 8.703125 31.328125 5.546875 C 30.367188 2.390625 30.113281 -1.453125 30.5625 -5.984375 L 32.578125 -25.1875 C 32.929688 -28.59375 32.359375 -31.253906 30.859375 -33.171875 C 29.359375 -35.097656 27.148438 -36.453125 24.234375 -37.234375 C 21.328125 -38.023438 17.972656 -38.421875 14.171875 -38.421875 L 14.171875 -55.609375 C 17.929688 -55.609375 21.265625 -56 24.171875 -56.78125 C 27.085938 -57.570312 29.304688 -58.925781 30.828125 -60.84375 C 32.347656 -62.769531 32.929688 -65.4375 32.578125 -68.84375 L 30.5625 -87.921875 C 30.070312 -92.523438 30.304688 -96.414062 31.265625 -99.59375 C 32.222656 -102.78125 33.988281 -105.347656 36.5625 -107.296875 C 39.144531 -109.242188 42.59375 -110.648438 46.90625 -111.515625 C 51.226562 -112.390625 56.476562 -112.828125 62.65625 -112.828125 Z M 62.65625 -112.828125 " />
			</g>
		</g>
	</g>
	<g fill="#ff6969" fill-opacity="1">
		<g transform="translate(247.042001, 256.414547)">
			<g>
				<path
					d="M 17.9375 -112.828125 C 24.113281 -112.828125 29.347656 -112.378906 33.640625 -111.484375 C 37.941406 -110.597656 41.378906 -109.179688 43.953125 -107.234375 C 46.535156 -105.285156 48.316406 -102.726562 49.296875 -99.5625 C 50.285156 -96.40625 50.53125 -92.566406 50.03125 -88.046875 L 48.015625 -68.84375 C 47.660156 -65.4375 48.242188 -62.769531 49.765625 -60.84375 C 51.285156 -58.925781 53.488281 -57.570312 56.375 -56.78125 C 59.269531 -56 62.617188 -55.609375 66.421875 -55.609375 L 66.421875 -38.421875 C 62.660156 -38.421875 59.320312 -38.023438 56.40625 -37.234375 C 53.5 -36.453125 51.285156 -35.097656 49.765625 -33.171875 C 48.242188 -31.253906 47.660156 -28.59375 48.015625 -25.1875 L 50.03125 -6.109375 C 50.53125 -1.492188 50.296875 2.398438 49.328125 5.578125 C 48.367188 8.753906 46.597656 11.316406 44.015625 13.265625 C 41.441406 15.210938 37.992188 16.625 33.671875 17.5 C 29.359375 18.375 24.113281 18.8125 17.9375 18.8125 L 17.9375 4.03125 C 20.664062 4.03125 23.003906 3.796875 24.953125 3.328125 C 26.898438 2.859375 28.351562 1.992188 29.3125 0.734375 C 30.28125 -0.515625 30.648438 -2.257812 30.421875 -4.5 L 28.34375 -24.3125 C 27.800781 -29.375 28.347656 -33.4375 29.984375 -36.5 C 31.617188 -39.570312 34.113281 -41.921875 37.46875 -43.546875 C 40.832031 -45.179688 44.773438 -46.335938 49.296875 -47.015625 C 44.503906 -47.734375 40.441406 -48.894531 37.109375 -50.5 C 33.773438 -52.113281 31.34375 -54.453125 29.8125 -57.515625 C 28.289062 -60.585938 27.800781 -64.65625 28.34375 -69.71875 L 30.421875 -89.53125 C 30.648438 -91.8125 30.28125 -93.566406 29.3125 -94.796875 C 28.351562 -96.035156 26.898438 -96.890625 24.953125 -97.359375 C 23.003906 -97.828125 20.664062 -98.0625 17.9375 -98.0625 Z M 17.9375 -112.828125 " />
			</g>
		</g>
	</g>
	<g fill="#ff6969" fill-opacity="1">
		<g transform="translate(345.460425, 249.967592)">
			<g>
				<path
					d="M 37.265625 -12.640625 C 40.734375 -12.640625 43.53125 -13.1875 45.65625 -14.28125 C 47.789062 -15.382812 48.859375 -17.03125 48.859375 -19.21875 C 48.859375 -20.71875 48.441406 -21.972656 47.609375 -22.984375 C 46.773438 -23.992188 45.171875 -24.957031 42.796875 -25.875 C 40.429688 -26.800781 36.921875 -27.898438 32.265625 -29.171875 C 28.003906 -30.304688 24.238281 -31.75 20.96875 -33.5 C 17.695312 -35.257812 15.148438 -37.519531 13.328125 -40.28125 C 11.503906 -43.050781 10.59375 -46.503906 10.59375 -50.640625 C 10.59375 -54.804688 11.753906 -58.515625 14.078125 -61.765625 C 16.410156 -65.015625 19.835938 -67.570312 24.359375 -69.4375 C 28.878906 -71.300781 34.410156 -72.234375 40.953125 -72.234375 C 47.179688 -72.234375 52.613281 -71.429688 57.25 -69.828125 C 61.882812 -68.222656 65.890625 -66.191406 69.265625 -63.734375 L 60.96875 -51.484375 C 58.070312 -53.285156 54.957031 -54.722656 51.625 -55.796875 C 48.289062 -56.878906 44.929688 -57.421875 41.546875 -57.421875 C 38.171875 -57.421875 35.660156 -56.96875 34.015625 -56.0625 C 32.367188 -55.164062 31.546875 -53.816406 31.546875 -52.015625 C 31.546875 -50.828125 31.972656 -49.804688 32.828125 -48.953125 C 33.679688 -48.097656 35.289062 -47.21875 37.65625 -46.3125 C 40.03125 -45.414062 43.5 -44.3125 48.0625 -43 C 52.582031 -41.726562 56.519531 -40.253906 59.875 -38.578125 C 63.238281 -36.910156 65.84375 -34.679688 67.6875 -31.890625 C 69.53125 -29.109375 70.453125 -25.4375 70.453125 -20.875 C 70.453125 -15.78125 68.9375 -11.507812 65.90625 -8.0625 C 62.875 -4.613281 58.859375 -2.035156 53.859375 -0.328125 C 48.859375 1.378906 43.375 2.234375 37.40625 2.234375 C 30.644531 2.234375 24.671875 1.269531 19.484375 -0.65625 C 14.304688 -2.59375 9.894531 -5.140625 6.25 -8.296875 L 16.71875 -20.015625 C 19.445312 -17.910156 22.53125 -16.15625 25.96875 -14.75 C 29.414062 -13.34375 33.179688 -12.640625 37.265625 -12.640625 Z M 37.265625 -12.640625 " />
			</g>
		</g>
	</g>
	<g fill="#ff6969" fill-opacity="1">
		<g transform="translate(430.913321, 249.967592)">
			<g>
				<path
					d="M 27.265625 -28.90625 C 27.742188 -25.082031 28.738281 -21.992188 30.25 -19.640625 C 31.769531 -17.296875 33.710938 -15.585938 36.078125 -14.515625 C 38.453125 -13.441406 41.109375 -12.90625 44.046875 -12.90625 C 47.253906 -12.90625 50.347656 -13.429688 53.328125 -14.484375 C 56.316406 -15.535156 59.191406 -16.941406 61.953125 -18.703125 L 70.328125 -7.375 C 67.035156 -4.5625 63.050781 -2.253906 58.375 -0.453125 C 53.695312 1.335938 48.375 2.234375 42.40625 2.234375 C 34.414062 2.234375 27.71875 0.644531 22.3125 -2.53125 C 16.914062 -5.71875 12.859375 -10.097656 10.140625 -15.671875 C 7.421875 -21.242188 6.0625 -27.648438 6.0625 -34.890625 C 6.0625 -41.785156 7.375 -48.050781 10 -53.6875 C 12.632812 -59.332031 16.488281 -63.832031 21.5625 -67.1875 C 26.632812 -70.550781 32.835938 -72.234375 40.171875 -72.234375 C 46.835938 -72.234375 52.617188 -70.804688 57.515625 -67.953125 C 62.410156 -65.097656 66.207031 -60.992188 68.90625 -55.640625 C 71.601562 -50.285156 72.953125 -43.851562 72.953125 -36.34375 C 72.953125 -35.15625 72.914062 -33.878906 72.84375 -32.515625 C 72.78125 -31.160156 72.6875 -29.957031 72.5625 -28.90625 Z M 40.171875 -58.265625 C 36.429688 -58.265625 33.421875 -56.925781 31.140625 -54.25 C 28.859375 -51.570312 27.476562 -47.296875 27 -41.421875 L 52.671875 -41.421875 C 52.628906 -46.503906 51.640625 -50.582031 49.703125 -53.65625 C 47.773438 -56.726562 44.597656 -58.265625 40.171875 -58.265625 Z M 40.171875 -58.265625 " />
			</g>
		</g>
	</g>
	<g fill="#ff6969" fill-opacity="1">
		<g transform="translate(516.366218, 249.967592)">
			<g>
				<path
					d="M 68.078125 -20.140625 C 68.078125 -17.515625 68.4375 -15.609375 69.15625 -14.421875 C 69.882812 -13.234375 71.0625 -12.332031 72.6875 -11.71875 L 68.40625 1.96875 C 64.28125 1.570312 60.800781 0.664062 57.96875 -0.75 C 55.144531 -2.175781 52.921875 -4.34375 51.296875 -7.25 C 48.617188 -4.039062 45.191406 -1.65625 41.015625 -0.09375 C 36.847656 1.457031 32.59375 2.234375 28.25 2.234375 C 21.050781 2.234375 15.3125 0.179688 11.03125 -3.921875 C 6.75 -8.023438 4.609375 -13.300781 4.609375 -19.75 C 4.609375 -27.34375 7.582031 -33.203125 13.53125 -37.328125 C 19.476562 -41.453125 27.851562 -43.515625 38.65625 -43.515625 L 48.0625 -43.515625 L 48.0625 -46.15625 C 48.0625 -49.800781 46.882812 -52.5 44.53125 -54.25 C 42.1875 -56.007812 38.753906 -56.890625 34.234375 -56.890625 C 31.992188 -56.890625 29.117188 -56.570312 25.609375 -55.9375 C 22.097656 -55.300781 18.585938 -54.390625 15.078125 -53.203125 L 10.265625 -67.03125 C 14.785156 -68.738281 19.492188 -70.03125 24.390625 -70.90625 C 29.285156 -71.789062 33.664062 -72.234375 37.53125 -72.234375 C 47.9375 -72.234375 55.628906 -70.113281 60.609375 -65.875 C 65.585938 -61.632812 68.078125 -55.523438 68.078125 -47.546875 Z M 35.421875 -12.640625 C 37.660156 -12.640625 40.007812 -13.304688 42.46875 -14.640625 C 44.925781 -15.984375 46.789062 -17.882812 48.0625 -20.34375 L 48.0625 -31.671875 L 42.9375 -31.671875 C 37.132812 -31.671875 32.875 -30.78125 30.15625 -29 C 27.4375 -27.226562 26.078125 -24.628906 26.078125 -21.203125 C 26.078125 -18.523438 26.898438 -16.425781 28.546875 -14.90625 C 30.191406 -13.394531 32.484375 -12.640625 35.421875 -12.640625 Z M 35.421875 -12.640625 " />
			</g>
		</g>
	</g>
	<g fill="#ff6969" fill-opacity="1">
		<g transform="translate(601.819114, 249.967592)">
			<g>
				<path
					d="M 9.875 0 L 9.875 -13.953125 L 19.09375 -13.953125 L 19.09375 -56.09375 L 9.875 -56.09375 L 9.875 -69.921875 L 34.96875 -69.921875 L 38.78125 -54.1875 C 41.28125 -60.195312 44.472656 -64.671875 48.359375 -67.609375 C 52.242188 -70.554688 57 -72.03125 62.625 -72.03125 C 64.988281 -72.03125 67.09375 -71.84375 68.9375 -71.46875 C 70.78125 -71.09375 72.515625 -70.578125 74.140625 -69.921875 L 67.8125 -52.734375 C 66.539062 -53.085938 65.269531 -53.351562 64 -53.53125 C 62.726562 -53.707031 61.320312 -53.796875 59.78125 -53.796875 C 55.21875 -53.796875 51.210938 -51.925781 47.765625 -48.1875 C 44.316406 -44.457031 41.695312 -39.71875 39.90625 -33.96875 L 39.90625 -13.953125 L 53.734375 -13.953125 L 53.734375 0 Z M 57.21875 -40.6875 L 57.21875 -61.109375 L 60.3125 -69.921875 L 74.140625 -69.921875 L 70.25 -40.6875 Z M 57.21875 -40.6875 " />
			</g>
		</g>
	</g>
	<g fill="#ff6969" fill-opacity="1">
		<g transform="translate(687.272011, 249.967592)">
			<g>
				<path
					d="M 46.28125 -14.15625 C 49.132812 -14.15625 51.820312 -14.710938 54.34375 -15.828125 C 56.875 -16.953125 59.390625 -18.390625 61.890625 -20.140625 L 71.171875 -6.984375 C 68.097656 -4.347656 64.351562 -2.148438 59.9375 -0.390625 C 55.53125 1.359375 50.609375 2.234375 45.171875 2.234375 C 37.660156 2.234375 31.207031 0.6875 25.8125 -2.40625 C 20.414062 -5.5 16.265625 -9.800781 13.359375 -15.3125 C 10.460938 -20.820312 9.015625 -27.21875 9.015625 -34.5 C 9.015625 -41.789062 10.492188 -48.273438 13.453125 -53.953125 C 16.421875 -59.640625 20.632812 -64.109375 26.09375 -67.359375 C 31.5625 -70.609375 38.050781 -72.234375 45.5625 -72.234375 C 50.875 -72.234375 55.601562 -71.492188 59.75 -70.015625 C 63.894531 -68.546875 67.703125 -66.363281 71.171875 -63.46875 L 62.15625 -50.96875 C 59.78125 -52.632812 57.273438 -53.925781 54.640625 -54.84375 C 52.015625 -55.769531 49.273438 -56.234375 46.421875 -56.234375 C 41.722656 -56.234375 37.9375 -54.570312 35.0625 -51.25 C 32.1875 -47.9375 30.75 -42.351562 30.75 -34.5 C 30.75 -29.363281 31.425781 -25.3125 32.78125 -22.34375 C 34.144531 -19.382812 36 -17.28125 38.34375 -16.03125 C 40.695312 -14.78125 43.34375 -14.15625 46.28125 -14.15625 Z M 46.28125 -14.15625 " />
			</g>
		</g>
	</g>
	<g fill="#ff6969" fill-opacity="1">
		<g transform="translate(772.724907, 249.967592)">
			<g>
				<path
					d="M 30.03125 -99.75 L 30.03125 -63.015625 C 32.96875 -66.128906 36.160156 -68.441406 39.609375 -69.953125 C 43.054688 -71.472656 46.707031 -72.234375 50.5625 -72.234375 C 56.800781 -72.234375 61.566406 -70.410156 64.859375 -66.765625 C 68.148438 -63.117188 69.796875 -57.984375 69.796875 -51.359375 L 69.796875 0 L 48.984375 0 L 48.984375 -45.5625 C 48.984375 -49.78125 48.507812 -52.722656 47.5625 -54.390625 C 46.625 -56.054688 44.859375 -56.890625 42.265625 -56.890625 C 40.816406 -56.890625 39.398438 -56.546875 38.015625 -55.859375 C 36.640625 -55.179688 35.289062 -54.207031 33.96875 -52.9375 C 32.65625 -51.664062 31.34375 -50.148438 30.03125 -48.390625 L 30.03125 0 L 9.21875 0 L 9.21875 -97.71875 Z M 30.03125 -99.75 " />
			</g>
		</g>
	</g>
	<g fill="#ff6969" fill-opacity="1">
		<g transform="translate(858.177804, 249.967592)">
			<g>
				<path
					d="M 75.328125 -69.921875 L 52.015625 0 C 49.953125 6.1875 47.21875 11.375 43.8125 15.5625 C 40.414062 19.757812 36.179688 23 31.109375 25.28125 C 26.035156 27.5625 19.945312 28.898438 12.84375 29.296875 L 10.46875 14.625 C 15.070312 14.050781 18.789062 13.191406 21.625 12.046875 C 24.457031 10.910156 26.738281 9.363281 28.46875 7.40625 C 30.207031 5.457031 31.710938 2.988281 32.984375 0 L 25.875 0 L 3.6875 -69.921875 L 25.671875 -69.921875 L 39.25 -13.296875 L 53.984375 -69.921875 Z M 75.328125 -69.921875 " />
			</g>
		</g>
	</g>
</svg>
